<?xml version="1.0" encoding="UTF-8" standalone="no"?>
<!-- Created with Inkscape (http://www.inkscape.org/) -->

<svg
   width="48"
   height="48"
   viewBox="0 0 12.7 12.7"
   version="1.1"
   id="svg5"
   xml:space="preserve"
   inkscape:version="1.2.1 (9c6d41e, 2022-07-14)"
   sodipodi:docname="openmoji-monster-dark.svg"
   xmlns:inkscape="http://www.inkscape.org/namespaces/inkscape"
   xmlns:sodipodi="http://sodipodi.sourceforge.net/DTD/sodipodi-0.dtd"
   xmlns="http://www.w3.org/2000/svg"
   xmlns:svg="http://www.w3.org/2000/svg"><sodipodi:namedview
     id="namedview7"
     pagecolor="#ffffff"
     bordercolor="#000000"
     borderopacity="0.25"
     inkscape:showpageshadow="2"
     inkscape:pageopacity="0.0"
     inkscape:pagecheckerboard="0"
     inkscape:deskcolor="#d1d1d1"
     inkscape:document-units="mm"
     showgrid="false"
     inkscape:zoom="16.25295"
     inkscape:cx="14.920368"
     inkscape:cy="27.656518"
     inkscape:window-width="1800"
     inkscape:window-height="1097"
     inkscape:window-x="0"
     inkscape:window-y="44"
     inkscape:window-maximized="1"
     inkscape:current-layer="layer1" /><defs
     id="defs2" /><g
     inkscape:label="Layer 1"
     inkscape:groupmode="layer"
     id="layer1"><g
       id="g272"
       transform="matrix(0.22411153,0,0,0.22411153,-1.7180151,-1.6059593)"><g
         id="color"><polygon
           fill="#8967aa"
           points="50,51 50,45 56,45 56,38 59,38 59,35 62,35 62,20 56,20 56,24 56,25 49,25 49,20 45,20 45,14 39,14 39,20 32,20 32,14 26,14 26,20 22,20 22,25 16,25 16,20 10,20 10,21 10,35 13,35 13,38 16,38 16,45 22,45 22,51 27,51 28,51 28,45 44,45 44,51 "
           id="polygon182"
           style="fill:#64748b;fill-opacity:1" /><rect
           x="16"
           y="51"
           width="6"
           height="6"
           fill="#8967aa"
           id="rect184"
           style="fill:#ff0000" /><rect
           x="50"
           y="51"
           width="6"
           height="6"
           fill="#8967aa"
           id="rect186" /></g><g
         id="line"><rect
           x="25.174999"
           y="31"
           width="3.5999999"
           height="6"
           stroke="#000000"
           stroke-linecap="round"
           stroke-linejoin="round"
           stroke-width="2"
           id="rect189"
           style="stroke:#f2f2f2;stroke-opacity:1;fill:#f2f2f2;fill-opacity:1" /><polyline
           fill="none"
           stroke="#000000"
           stroke-linecap="round"
           stroke-linejoin="round"
           stroke-width="2"
           points="22,45 16,45 16,39"
           id="polyline191"
           style="stroke:#f2f2f2;stroke-opacity:1" /><polyline
           fill="none"
           stroke="#000000"
           stroke-linecap="round"
           stroke-linejoin="round"
           stroke-width="2"
           points="22.583,25 22.583,20 26,20"
           id="polyline193"
           style="stroke:#f2f2f2;stroke-opacity:1" /><polyline
           fill="none"
           stroke="#000000"
           stroke-linecap="round"
           stroke-linejoin="round"
           stroke-width="2"
           points="48.708,25 48.708,20 45.292,20"
           id="polyline195"
           style="stroke:#f2f2f2;stroke-opacity:1" /><polyline
           fill="none"
           stroke="#000000"
           stroke-linecap="round"
           stroke-linejoin="round"
           stroke-width="2"
           points="13,35 10,35 10,20 16,20 16,35"
           id="polyline197"
           style="stroke:#f2f2f2;stroke-opacity:1" /><polyline
           fill="none"
           stroke="#000000"
           stroke-linecap="round"
           stroke-linejoin="round"
           stroke-width="2"
           points="56,35 56,20 62,20 62,35 59,35"
           id="polyline199"
           style="stroke:#f2f2f2;stroke-opacity:1" /><polyline
           fill="none"
           stroke="#000000"
           stroke-linecap="round"
           stroke-linejoin="round"
           stroke-width="2"
           points="26,20 26,14 32,14 32,20"
           id="polyline201"
           style="stroke:#f2f2f2;stroke-opacity:1" /><polyline
           fill="none"
           stroke="#000000"
           stroke-linecap="round"
           stroke-linejoin="round"
           stroke-width="2"
           points="39,20 39,14 45,14 45,20"
           id="polyline203"
           style="stroke:#f2f2f2;stroke-opacity:1" /><polyline
           fill="none"
           stroke="#000000"
           stroke-linecap="round"
           stroke-linejoin="round"
           stroke-width="2"
           points="16,35 19,35 19,38 13,38 13,35"
           id="polyline205"
           style="stroke:#f2f2f2;stroke-opacity:1" /><polyline
           fill="none"
           stroke="#000000"
           stroke-linecap="round"
           stroke-linejoin="round"
           stroke-width="2"
           points="59,35 59,38 53,38 53,35 56,35"
           id="polyline207"
           style="stroke:#f2f2f2;stroke-opacity:1" /><rect
           x="16"
           y="51"
           width="6"
           height="6"
           fill="none"
           stroke="#000000"
           stroke-linecap="round"
           stroke-linejoin="round"
           stroke-width="2"
           id="rect209"
           style="fill:#64748b;stroke:#f2f2f2;stroke-opacity:1;fill-opacity:1" /><rect
           x="50"
           y="51"
           width="6"
           height="6"
           fill="none"
           stroke="#000000"
           stroke-linecap="round"
           stroke-linejoin="round"
           stroke-width="2"
           id="rect211"
           style="fill:#64748b;stroke:#f2f2f2;stroke-opacity:1;fill-opacity:1" /><polyline
           fill="none"
           stroke="#000000"
           stroke-linecap="round"
           stroke-linejoin="round"
           stroke-width="2"
           points="28,45 28,51 22,51 22,45"
           id="polyline213"
           style="stroke:#f2f2f2;stroke-opacity:1" /><polyline
           fill="none"
           stroke="#000000"
           stroke-linecap="round"
           stroke-linejoin="round"
           stroke-width="2"
           points="50,45 56,45 56,39"
           id="polyline215"
           style="stroke:#f2f2f2;stroke-opacity:1" /><polyline
           fill="none"
           stroke="#000000"
           stroke-linecap="round"
           stroke-linejoin="round"
           stroke-width="2"
           points="44,45 44,51 50,51 50,45"
           id="polyline217"
           style="stroke:#f2f2f2;stroke-opacity:1" /><rect
           x="43.424999"
           y="31"
           width="3.5999999"
           height="6"
           stroke="#000000"
           stroke-linecap="round"
           stroke-linejoin="round"
           stroke-width="2"
           id="rect219"
           style="stroke:#f2f2f2;stroke-opacity:1;fill:#f2f2f2;fill-opacity:1" /><path
           fill="none"
           stroke="#000000"
           stroke-linecap="round"
           stroke-linejoin="round"
           stroke-width="2"
           d="M 44,45 Z"
           id="path221" /><path
           fill="none"
           stroke="#000000"
           stroke-linecap="round"
           stroke-linejoin="round"
           stroke-width="2"
           d="M 39,20 Z"
           id="path223" /><path
           fill="none"
           stroke="#000000"
           stroke-linecap="round"
           stroke-linejoin="round"
           stroke-width="2"
           d="M 16,25 Z"
           id="path225" /><path
           fill="none"
           stroke="#000000"
           stroke-linecap="round"
           stroke-linejoin="round"
           stroke-width="2"
           d="M 49,25 Z"
           id="path227" /><line
           x1="28"
           x2="44"
           y1="45"
           y2="45"
           fill="none"
           stroke="#000000"
           stroke-linecap="round"
           stroke-linejoin="round"
           stroke-width="2"
           id="line229"
           style="stroke:#f2f2f2;stroke-opacity:1" /><line
           x1="32"
           x2="39"
           y1="20"
           y2="20"
           fill="none"
           stroke="#000000"
           stroke-linecap="round"
           stroke-linejoin="round"
           stroke-width="2"
           id="line231"
           style="stroke:#f2f2f2;stroke-opacity:1" /><line
           x1="16"
           x2="22"
           y1="25"
           y2="25"
           fill="none"
           stroke="#000000"
           stroke-linecap="round"
           stroke-linejoin="round"
           stroke-width="2"
           id="line233"
           style="fill:#f2f2f2;stroke:#f2f2f2;stroke-opacity:1" /><line
           x1="49"
           x2="56"
           y1="25"
           y2="25"
           fill="none"
           stroke="#000000"
           stroke-linecap="round"
           stroke-linejoin="round"
           stroke-width="2"
           id="line235"
           style="stroke:#f2f2f2;stroke-opacity:1" /></g></g></g></svg>
