<?xml version="1.0" encoding="UTF-8" standalone="no"?>
<svg
   id="emoji"
   viewBox="0 0 72 72"
   version="1.1"
   sodipodi:docname="openmoji-blossom.svg"
   inkscape:version="1.2.1 (9c6d41e, 2022-07-14)"
   xmlns:inkscape="http://www.inkscape.org/namespaces/inkscape"
   xmlns:sodipodi="http://sodipodi.sourceforge.net/DTD/sodipodi-0.dtd"
   xmlns="http://www.w3.org/2000/svg"
   xmlns:svg="http://www.w3.org/2000/svg">
  <defs
     id="defs24" />
  <sodipodi:namedview
     id="namedview22"
     pagecolor="#ffffff"
     bordercolor="#000000"
     borderopacity="0.25"
     inkscape:showpageshadow="2"
     inkscape:pageopacity="0.0"
     inkscape:pagecheckerboard="0"
     inkscape:deskcolor="#d1d1d1"
     showgrid="false"
     showguides="true"
     inkscape:zoom="3.2777778"
     inkscape:cx="-0.61016949"
     inkscape:cy="36"
     inkscape:window-width="1309"
     inkscape:window-height="456"
     inkscape:window-x="0"
     inkscape:window-y="44"
     inkscape:window-maximized="0"
     inkscape:current-layer="emoji" />
  <g
     id="color"
     transform="matrix(1.2105561,0,0,1.2105561,-3.3583396,-8.3468783)">
    <path
       fill="#fcea2b"
       stroke="none"
       d="m 53.1986,26.1283 c -0.2578,-0.3518 -0.2578,-0.8302 0,-1.182 l 0.781,-1.066 C 55.7032,21.5241 55.1904,18.2167 52.8341,16.493 51.77,15.7146 50.4533,15.3619 49.1426,15.5043 l -1.313,0.143 c -0.4329,0.0447 -0.8455,-0.1936 -1.023,-0.591 l -0.533,-1.208 c -1.1787,-2.6708 -4.2994,-3.8805 -6.9702,-2.7018 -1.206,0.5322 -2.1696,1.4958 -2.7018,2.7018 l -0.533,1.209 c -0.1785,0.3963 -0.5906,0.6339 -1.023,0.59 l -1.313,-0.143 c -2.9024,-0.3146 -5.5102,1.7833 -5.8248,4.6857 -0.142,1.3104 0.2106,2.6265 0.9888,3.6903 l 0.781,1.066 c 0.2578,0.3518 0.2578,0.8302 0,1.182 l -0.78,1.066 c -1.7242,2.3551 -1.2128,5.6621 1.1423,7.3863 1.0645,0.7794 2.3821,1.1324 3.6937,0.9897 l 1.313,-0.143 c 0.4331,-0.0472 0.8469,0.1915 1.023,0.59 l 0.533,1.208 c 0.1352,0.2987 0.2972,0.5845 0.484,0.854 0.043,0.063 0.088,0.122 0.133,0.182 0.1707,0.2319 0.3604,0.4494 0.567,0.65 0.019,0.019 0.037,0.039 0.056,0.057 0.5022,0.4685 1.0932,0.8316 1.738,1.068 v 0 c 0.5941,0.2236 1.2233,0.3394 1.858,0.342 2.0993,0.0169 4.0045,-1.2253 4.836,-3.153 l 0.533,-1.208 c 0.1757,-0.3989 0.5896,-0.638 1.023,-0.591 l 1.313,0.143 c 2.9023,0.3152 5.5106,-1.7821 5.8258,-4.6845 0.1423,-1.3108 -0.2103,-2.6274 -0.9888,-3.6915 z"
       id="path2" />
    <path
       fill="#5c9e31"
       stroke="none"
       d="m 10.0786,28.3983 c -0.151,2.092 -0.178,7.231 2.687,10.738 2.865,3.507 7.906,4.508 9.985,4.774 0.151,-2.092 0.178,-7.232 -2.687,-10.738 v 0 c -2.875,-3.517 -7.908,-4.508 -9.985,-4.774 z"
       id="path4" />
    <path
       fill="#f1b31c"
       stroke="none"
       d="m 41.4376,21.5373 c -2.2091,0 -4,1.7909 -4,4 0,2.2091 1.7909,4 4,4 2.2091,0 4,-1.7909 4,-4 0,-2.2091 -1.7908,-4 -4,-4 z"
       id="path6" />
  </g>
  <g
     id="hair" />
  <g
     id="skin" />
  <g
     id="skin-shadow" />
  <g
     id="line"
     transform="matrix(1.2105561,0,0,1.2105561,-3.3583396,-8.3468783)">
    <circle
       cx="41.437599"
       cy="25.5373"
       r="5"
       fill="none"
       stroke="#000000"
       stroke-linecap="round"
       stroke-linejoin="round"
       stroke-width="2"
       id="circle12" />
    <path
       fill="none"
       stroke="#000000"
       stroke-linecap="round"
       stroke-linejoin="round"
       stroke-width="2"
       d="m 20.8366,32.5393 c 3.992,4.886 2.805,12.462 2.805,12.462 0,0 -7.66,-0.347 -11.653,-5.233 -3.993,-4.886 -2.805,-12.462 -2.805,-12.462 0,0 7.66,0.347 11.653,5.233 z"
       id="path14" />
    <path
       fill="none"
       stroke="#000000"
       stroke-linecap="round"
       stroke-linejoin="round"
       stroke-width="2"
       d="m 32.0106,41.0902 c -3.438,3.548 -7.676,10.246 -5.829,20.735"
       id="path16" />
    <path
       fill="none"
       stroke="#000000"
       stroke-linecap="round"
       stroke-linejoin="round"
       stroke-width="2"
       d="m 47.1886,13.4433 0.533,1.209 1.313,-0.143 c 3.4507,-0.3755 6.5525,2.1174 6.9281,5.5682 0.1698,1.5599 -0.2501,3.1268 -1.177,4.3928 l -0.78,1.066 0.78,1.066 c 2.0506,2.8007 1.4425,6.7334 -1.3582,8.784 -1.266,0.9269 -2.833,1.3468 -4.3928,1.177 l -1.313,-0.143 -0.533,1.209 c -1.4014,3.1756 -5.1118,4.6139 -8.2875,3.2125 -1.434,-0.6328 -2.5797,-1.7786 -3.2125,-3.2125 l -0.533,-1.209 -1.313,0.143 c -3.4507,0.3755 -6.5525,-2.1174 -6.928,-5.5682 -0.1697,-1.5599 0.2501,-3.1268 1.177,-4.3928 l 0.78,-1.066 -0.78,-1.066 c -2.0506,-2.8007 -1.4425,-6.7334 1.3582,-8.784 1.266,-0.9269 2.833,-1.3468 4.3928,-1.177 l 1.313,0.143 0.533,-1.209 c 1.4014,-3.1756 5.1118,-4.6139 8.2875,-3.2125 1.4339,0.6327 2.5796,1.7785 3.2124,3.2125 z"
       id="path18" />
  </g>
</svg>
